<svg width="411" height="193" viewBox="0 0 411 193" fill="none" xmlns="http://www.w3.org/2000/svg">
<path d="M18.3 63.9C18.6333 62.7 18.9667 61.5 19.3 60.3C19.6333 59.0333 19.8 58.1 19.8 57.5C19.8 55.1667 17.2667 54 12.2 54L13 51L31.3 50.1L13.4 115.8C12.8667 117.6 12.4667 119.2 12.2 120.6C11.9333 121.933 11.8 123.067 11.8 124C11.8 124.6 11.9667 125.133 12.3 125.6C12.6333 126.067 13.1667 126.3 13.9 126.3C14.9667 126.3 16.1 125.867 17.3 125C18.5 124.067 19.6334 123 20.7001 121.8C21.8334 120.533 22.8334 119.267 23.7001 118C24.5668 116.667 25.2 115.633 25.6 114.9L28.6 116.6C27.6 118.867 26.3001 121.067 24.7001 123.2C23.1001 125.267 21.4 127.1 19.6 128.7C17.8001 130.3 15.9667 131.6 14.1 132.6C12.3 133.533 10.6333 134 9.10005 134C6.76672 134 5.03338 133.5 3.90005 132.5C2.83338 131.5 2.30005 129.833 2.30005 127.5C2.30005 126.167 2.50005 124.367 2.90005 122.1C3.30005 119.833 4.00005 116.733 5.00005 112.8L18.3 63.9ZM38.4478 100C39.3811 97.4 40.0478 95.3 40.4478 93.7C40.8478 92.1 41.0477 90.8333 41.0477 89.9C41.0477 88.9667 40.881 88.3667 40.5477 88.1C40.281 87.7667 39.9811 87.6 39.6478 87.6C38.9144 87.6 38.1143 87.9667 37.2477 88.7C36.381 89.3667 35.5144 90.1667 34.6478 91.1C33.7811 92.0333 33.0143 92.9667 32.3477 93.9C31.681 94.8333 31.2144 95.5667 30.9478 96.1L28.0478 94.3C28.8478 92.8333 29.9477 91.2 31.3477 89.4C32.8143 87.6 34.4477 85.9333 36.2477 84.4C38.0477 82.8667 39.9143 81.6 41.8477 80.6C43.781 79.5333 45.6143 79 47.3477 79C49.0143 79 50.2477 79.5 51.0477 80.5C51.9143 81.4333 52.3477 83.1667 52.3477 85.7C52.3477 87.6333 51.7477 90.2333 50.5477 93.5C49.4143 96.7667 47.9143 100.967 46.0477 106.1L42.3477 116.2C42.2143 116.533 42.0143 117.067 41.7477 117.8C41.5477 118.467 41.3143 119.2 41.0477 120C40.8477 120.733 40.6478 121.467 40.4478 122.2C40.3144 122.933 40.2477 123.533 40.2477 124C40.2477 124.6 40.4143 125.133 40.7477 125.6C41.081 126.067 41.6143 126.3 42.3477 126.3C43.3477 126.3 44.3811 125.9 45.4478 125.1C46.5144 124.233 47.5477 123.233 48.5477 122.1C49.5477 120.967 50.4477 119.833 51.2477 118.7C52.0477 117.5 52.6477 116.567 53.0477 115.9L56.0477 117.6C55.2477 119.2 54.1477 120.967 52.7477 122.9C51.4143 124.833 49.8811 126.633 48.1478 128.3C46.4144 129.9 44.5144 131.267 42.4478 132.4C40.3811 133.467 38.2477 134 36.0477 134C34.1143 134 32.6477 133.5 31.6477 132.5C30.7143 131.5 30.2477 129.833 30.2477 127.5C30.2477 125.567 30.5477 123.5 31.1477 121.3C31.8143 119.033 32.7478 116.2 33.9478 112.8L38.4478 100ZM53.1478 62.6C51.4811 62.6 50.0143 62.0333 48.7477 60.9C47.5477 59.7667 46.9478 58.3 46.9478 56.5C46.9478 54.7 47.5477 53.1667 48.7477 51.9C49.9477 50.6333 51.4144 50 53.1478 50C55.0144 50 56.5477 50.6333 57.7477 51.9C58.9477 53.1667 59.5477 54.6667 59.5477 56.4C59.5477 58.1333 58.9144 59.6 57.6478 60.8C56.3811 62 54.8811 62.6 53.1478 62.6ZM72.4227 134C70.156 134 68.0227 133.567 66.0227 132.7C64.0893 131.767 62.3893 130.433 60.9227 128.7C59.456 126.967 58.2893 124.867 57.4227 122.4C56.556 119.867 56.1227 117.033 56.1227 113.9C56.1227 109.567 56.9228 105.3 58.5228 101.1C60.1894 96.9 62.356 93.1667 65.0227 89.9C67.6893 86.6333 70.7227 84 74.1227 82C77.5893 80 81.156 79 84.8227 79C87.2227 79 89.4227 79.4667 91.4227 80.4C93.4893 81.2667 95.2227 82.5667 96.6227 84.3C98.0893 85.9667 99.2227 88 100.023 90.4C100.889 92.7333 101.323 95.3333 101.323 98.2C101.323 102.4 100.489 106.633 98.8227 110.9C97.156 115.167 94.956 119 92.2227 122.4C89.556 125.8 86.4893 128.6 83.0227 130.8C79.556 132.933 76.0227 134 72.4227 134ZM73.0227 129C75.2893 129 77.5227 127.833 79.7227 125.5C81.9893 123.167 83.9893 120.233 85.7227 116.7C87.5227 113.1 88.956 109.2 90.0227 105C91.156 100.8 91.7227 96.8 91.7227 93C91.7227 89.4667 91.0893 87.0333 89.8227 85.7C88.6227 84.3667 86.956 83.7 84.8227 83.7C83.356 83.7 81.856 84.2333 80.3227 85.3C78.856 86.3 77.456 87.7 76.1227 89.5C74.7893 91.3 73.5227 93.3667 72.3227 95.7C71.1893 98.0333 70.1893 100.5 69.3227 103.1C68.456 105.7 67.7893 108.367 67.3227 111.1C66.856 113.767 66.6227 116.333 66.6227 118.8C66.6227 122.533 67.2227 125.167 68.4227 126.7C69.6227 128.233 71.156 129 73.0227 129ZM102.166 93.9C102.9 92.2333 104 90.5333 105.466 88.8C107 87 108.633 85.4 110.366 84C112.166 82.5333 113.966 81.3333 115.766 80.4C117.566 79.4667 119.133 79 120.466 79C122.066 79 123.233 79.6 123.966 80.8C124.7 82 125.066 83.9333 125.066 86.6C125.066 87.6667 125 88.7 124.866 89.7C124.8 90.7 124.633 91.8667 124.366 93.2L124.666 93.5C125.466 91.5667 126.6 89.6667 128.066 87.8C129.533 85.9333 131.1 84.3 132.766 82.9C134.5 81.4333 136.233 80.2667 137.966 79.4C139.766 78.4667 141.433 78 142.966 78C144.9 78 146.5 78.6333 147.766 79.9C149.1 81.1 149.766 82.6 149.766 84.4C149.766 86.1333 149.2 87.5667 148.066 88.7C147 89.8333 145.6 90.4 143.866 90.4C142.8 90.4 141.933 90.2 141.266 89.8C140.666 89.4 140.133 89 139.666 88.6C139.2 88.1333 138.766 87.7 138.366 87.3C137.966 86.9 137.466 86.7 136.866 86.7C135.6 86.7 134.133 87.5667 132.466 89.3C130.8 90.9667 129.066 93.2667 127.266 96.2C125.466 99.1333 123.666 102.567 121.866 106.5C120.133 110.433 118.533 114.667 117.066 119.2L112.566 133H103.266L109.766 112.3C111.033 108.3 112.066 105 112.866 102.4C113.733 99.7333 114.4 97.5333 114.866 95.8C115.333 94 115.633 92.6 115.766 91.6C115.966 90.6 116.066 89.7333 116.066 89C116.066 87.5333 115.566 86.8 114.566 86.8C113.9 86.8 113.066 87.0667 112.066 87.6C111.133 88.1333 110.2 88.8 109.266 89.6C108.333 90.4 107.433 91.3 106.566 92.3C105.766 93.3 105.166 94.2667 104.766 95.2L102.166 93.9Z" fill="black"/>
<path d="M170.8 133V120.8H187.4C190.467 120.8 192.867 119.9 194.6 118.1C196.333 116.3 197.2 114.1 197.2 111.5C197.2 109.7 196.8 108.1 196 106.7C195.2 105.3 194.067 104.2 192.6 103.4C191.2 102.6 189.467 102.2 187.4 102.2H170.8V90.3004H186.1C188.7 90.3004 190.8 89.6671 192.4 88.4004C194 87.0671 194.8 85.0671 194.8 82.4004C194.8 79.8004 194 77.8671 192.4 76.6004C190.8 75.2671 188.7 74.6004 186.1 74.6004H170.8V62.4004H189.1C193.633 62.4004 197.467 63.2337 200.6 64.9004C203.8 66.5671 206.233 68.8004 207.9 71.6004C209.567 74.4004 210.4 77.5004 210.4 80.9004C210.4 85.2337 209 88.9004 206.2 91.9004C203.4 94.9004 199.267 96.9671 193.8 98.1004L194.2 92.8004C200.133 93.9337 204.7 96.2337 207.9 99.7004C211.167 103.167 212.8 107.433 212.8 112.5C212.8 116.367 211.833 119.867 209.9 123C208.033 126.067 205.3 128.5 201.7 130.3C198.167 132.1 193.9 133 188.9 133H170.8ZM158.8 133V62.4004H174.3V133H158.8ZM239.762 134C235.296 134 231.296 132.9 227.763 130.7C224.296 128.5 221.529 125.5 219.463 121.7C217.463 117.9 216.463 113.567 216.463 108.7C216.463 103.833 217.463 99.5004 219.463 95.7004C221.529 91.9004 224.296 88.9004 227.763 86.7004C231.296 84.5004 235.296 83.4004 239.762 83.4004C243.029 83.4004 245.963 84.0337 248.563 85.3004C251.229 86.5671 253.396 88.3337 255.063 90.6004C256.729 92.8004 257.663 95.3337 257.863 98.2004V119.2C257.663 122.067 256.729 124.633 255.063 126.9C253.463 129.1 251.329 130.833 248.663 132.1C245.996 133.367 243.029 134 239.762 134ZM242.863 120.2C246.129 120.2 248.763 119.133 250.763 117C252.763 114.8 253.763 112.033 253.763 108.7C253.763 106.433 253.296 104.433 252.363 102.7C251.496 100.967 250.229 99.6337 248.563 98.7004C246.963 97.7004 245.096 97.2004 242.963 97.2004C240.829 97.2004 238.929 97.7004 237.263 98.7004C235.663 99.6337 234.363 100.967 233.363 102.7C232.429 104.433 231.963 106.433 231.963 108.7C231.963 110.9 232.429 112.867 233.363 114.6C234.296 116.333 235.596 117.7 237.263 118.7C238.929 119.7 240.796 120.2 242.863 120.2ZM253.163 133V119.9L255.463 108.1L253.163 96.3004V84.4004H268.163V133H253.163ZM298.535 134.1C294.068 134.1 290.102 133.2 286.635 131.4C283.235 129.533 280.568 127 278.635 123.8C276.702 120.533 275.735 116.8 275.735 112.6V84.4004H291.035V112.4C291.035 114.067 291.302 115.5 291.835 116.7C292.435 117.9 293.302 118.833 294.435 119.5C295.568 120.167 296.935 120.5 298.535 120.5C300.802 120.5 302.602 119.8 303.935 118.4C305.268 116.933 305.935 114.933 305.935 112.4V84.4004H321.235V112.5C321.235 116.767 320.268 120.533 318.335 123.8C316.402 127 313.735 129.533 310.335 131.4C306.935 133.2 303.002 134.1 298.535 134.1ZM328.841 133V84.4004H344.141V133H328.841ZM359.941 133V104.6C359.941 102.133 359.175 100.233 357.641 98.9004C356.175 97.5004 354.341 96.8004 352.141 96.8004C350.608 96.8004 349.241 97.1337 348.041 97.8004C346.841 98.4004 345.875 99.2671 345.141 100.4C344.475 101.533 344.141 102.933 344.141 104.6L338.241 102C338.241 98.1337 339.075 94.8337 340.741 92.1004C342.408 89.3004 344.675 87.1671 347.541 85.7004C350.408 84.1671 353.641 83.4004 357.241 83.4004C360.641 83.4004 363.675 84.1671 366.341 85.7004C369.075 87.2337 371.241 89.3671 372.841 92.1004C374.441 94.8337 375.241 98.1004 375.241 101.9V133H359.941ZM391.041 133V104.6C391.041 102.133 390.275 100.233 388.741 98.9004C387.275 97.5004 385.441 96.8004 383.241 96.8004C381.708 96.8004 380.341 97.1337 379.141 97.8004C377.941 98.4004 376.975 99.2671 376.241 100.4C375.575 101.533 375.241 102.933 375.241 104.6L366.441 103.4C366.575 99.2671 367.541 95.7337 369.341 92.8004C371.208 89.8004 373.641 87.5004 376.641 85.9004C379.708 84.2337 383.141 83.4004 386.941 83.4004C390.675 83.4004 393.975 84.2004 396.841 85.8004C399.775 87.3337 402.075 89.5671 403.741 92.5004C405.475 95.3671 406.341 98.8337 406.341 102.9V133H391.041Z" fill="black"/>
</svg>
