<svg version="1.2" xmlns="http://www.w3.org/2000/svg" viewBox="0 0 1562 706" width="1562" height="706">
	<title>align-logo-svg</title>
	<style>
		.s0 { fill: #009ace } 
		.s1 { fill: #3d3935 } 
	</style>
	<path id="Layer" class="s0" d="m682.9 0c-21.2 0-40.3 12.8-48.4 32.4-8.1 19.6-3.6 42.2 11.4 57.2 15 15 37.6 19.5 57.2 11.4 19.6-8.2 32.3-27.4 32.3-48.6 0-6.9-1.3-13.7-4-20.1-2.6-6.4-6.5-12.1-11.3-17-4.9-4.9-10.7-8.7-17.1-11.4-6.3-2.6-13.2-3.9-20.1-3.9z"/>
	<path id="Layer" fill-rule="evenodd" class="s1" d="m1251.1 172.8h80.6l1.2 33.6c5.6-6.9 11.9-13.1 18.8-18.5 7-5.4 14.5-10.1 22.5-13.9 8-3.7 16.3-6.6 24.9-8.5 8.7-1.9 17.5-2.9 26.3-2.8 88.4 0 136.6 54.7 136.6 150v221.9h-83.5v-218.9c0-49-30-77.2-72-77.2-42.1 0-71.9 28.2-71.9 77.2v219.1h-83.5zm-704.9 362h-83.4v-526.2h83.6zm95-362h83.7v362h-83.7zm-356.1 0h82.6v362h-82.6l-1.3-37.9c-7.4 7.4-15.4 14.1-24 20-8.6 5.9-17.8 10.9-27.4 15.1-9.5 4.1-19.5 7.3-29.7 9.5-10.2 2.2-20.6 3.4-31 3.6-98.6-0.1-171.7-79.5-171.7-190.8 0-118.7 79.2-191.6 171.7-191.6 10.5-0.3 21 0.5 31.3 2.5 10.3 2 20.4 5 30.1 9.2 9.6 4.2 18.8 9.3 27.3 15.5 8.5 6.1 16.4 13.2 23.4 21zm-199.7 181.5c0 69.5 42.5 115.8 101.7 115.8 53.9 0 102.1-39.6 102.1-115.8 0-74.4-46.2-115.8-101.8-115.8-62.1 0-102 48.7-102 115.8zm1070.6 144.7c0 155.4-90.8 206.9-197.7 206.9q-16.8 0.3-33.5-1.4-16.6-1.7-33-5.4-16.3-3.6-32.1-9.2-15.8-5.6-30.8-12.9l20.7-71.8q12.3 6.9 25.4 12.2 13.1 5.3 26.8 8.9 13.6 3.5 27.6 5.3 14.1 1.8 28.2 1.7c62.2 0 115-39.9 115-111.8v-24.9c-7.1 7.8-15.1 14.9-23.7 21-8.6 6.1-17.9 11.3-27.6 15.5-9.7 4.1-19.9 7.2-30.3 9.2-10.3 2-20.9 2.8-31.5 2.6-97.4 0-171-78.5-171-191.3 0-108 69.3-191.1 171.4-191.1 10.5-0.4 21 0.4 31.4 2.4 10.3 1.9 20.4 5 30.1 9.2 9.7 4.1 18.8 9.3 27.4 15.5 8.5 6.2 16.3 13.3 23.3 21.1l1.1-38.1h82.8zm-78.8-144.7c0-75.5-47.5-115.8-101.6-115.8-64.6 0-101.9 52.6-101.9 115.8 0 66.7 40.2 115.8 101.9 115.8 56.8 0 101.6-42.3 101.6-115.8z"/>
</svg>